PathFileType	4	(X/Y/Z)	./resultDataOpenSim/trcMotMarkerGrf/sub09/qtm-13-05.trc
DataRate	CameraRate	NumFrames	NumMarkers	Units	OrigDataRate	OrigDataStartFrame	OrigNumFrames
250.000000	250.000000	15	24	m	250.000000	1	504
Frame#	Time	L.Toe.Tip			R.Toe.Tip			L.Ankle.Lat			R.Ankle.Lat			L.Ankle.Med			R.Ankle.Med			L.Heel			R.Heel			L.Knee.Lat			R.Knee.Lat			L.Knee.Med			R.Knee.Med			L.Thigh.Upper			R.Thigh.Upper			L.ASIS			R.ASIS			V.Sacral			L.Acromium			R.Acromium			C7			L.Elbow			R.Elbow			L.Wrist.Lat			R.Wrist.Lat
		X1	Y1	Z1	X2	Y2	Z2	X3	Y3	Z3	X4	Y4	Z4	X5	Y5	Z5	X6	Y6	Z6	X7	Y7	Z7	X8	Y8	Z8	X9	Y9	Z9	X10	Y10	Z10	X11	Y11	Z11	X12	Y12	Z12	X13	Y13	Z13	X14	Y14	Z14	X15	Y15	Z15	X16	Y16	Z16	X17	Y17	Z17	X18	Y18	Z18	X19	Y19	Z19	X20	Y20	Z20	X21	Y21	Z21	X22	Y22	Z22	X23	Y23	Z23	X24	Y24	Z24

1	0	-1.4749	0.036481879	-0.07062778	-0.92774207	0.099784357	0.091527262	-1.6206275	0.073714756	-0.10616762	-1.0777034	0.074847203	0.11387505	-1.5983473	0.090276232	-0.011074471	-1.0655835	0.1186286	0.025436531	NaN	NaN	NaN	-1.1262104	0.033110239	0.057075562	-1.4745293	0.46691214	-0.15533299	-1.1444803	0.5290264	0.15059192	-1.4769001	0.4672451	-0.030317503	-1.1333135	0.51137688	0.025289897	-1.3789273	0.87895218	-0.19671318	-1.3538958	0.8757396	0.17664948	-1.2747086	0.9532193	-0.13930862	-1.2707906	0.95772321	0.10170192	-1.4346361	1.0183708	-0.011878912	-1.2300838	1.4047423	-0.16365682	-1.2744357	1.4143137	0.16199448	-1.3114731	1.4654119	-0.0034423679	-1.3669745	1.0607624	-0.25048801	-1.4557331	1.1019428	0.24484776	-1.1635231	0.88198733	-0.2241161	-1.350629	0.85359604	0.28893643
2	0.004	-1.4749388	0.036420884	-0.070612892	-0.91074438	0.10331517	0.093274375	-1.62055	0.074158177	-0.10573564	-1.060218	0.075023489	0.11546016	-1.5979815	0.090765556	-0.010755233	-1.0487851	0.11905272	0.027049195	NaN	NaN	NaN	-1.1076217	0.032286865	0.058916985	-1.4728062	0.4667356	-0.15551742	-1.137233	0.52787747	0.15122228	-1.4751613	0.46714598	-0.030352541	-1.1262552	0.51000156	0.025677211	-1.3735364	0.8776705	-0.19619495	-1.3478947	0.87397234	0.17691951	-1.2688227	0.95169239	-0.13924274	-1.2644925	0.95611536	0.10188835	-1.4289164	1.0167064	-0.011499208	-1.2240446	1.4032421	-0.1631603	-1.2687073	1.4126391	0.16255924	-1.3057583	1.4638641	-0.0032894924	-1.3606754	1.0591028	-0.25056487	-1.4499523	1.1000275	0.24463099	-1.1565997	0.88106117	-0.22340746	-1.3448351	0.85195561	0.2897284
3	0.008	-1.4749659	0.036364935	-0.070603242	-0.89388735	0.10699361	0.095004947	-1.6204627	0.07463858	-0.10525502	-1.0429011	0.075313619	0.11704618	-1.5976871	0.091255656	-0.010381761	-1.0321825	0.11955252	0.02864106	NaN	NaN	NaN	-1.0891221	0.031522654	0.060873158	-1.4710178	0.4665697	-0.15564561	-1.129999	0.52669508	0.15186977	-1.4733433	0.46705891	-0.030391004	-1.1192448	0.50859555	0.026069809	-1.3680985	0.87639889	-0.19565721	-1.341865	0.87219519	0.17718871	-1.2629257	0.95015034	-0.1391622	-1.2581799	0.95447833	0.10206531	-1.4231186	1.0150405	-0.011038627	-1.2180189	1.4017346	-0.16264257	-1.2629011	1.4109359	0.16310998	-1.3000476	1.4623086	-0.0029862213	-1.3543147	1.0574648	-0.25044792	-1.4440534	1.098044	0.24431718	-1.1496758	0.88011084	-0.22268777	-1.3390577	0.85031586	0.29052252
4	0.012	-1.4749718	0.036314484	-0.070599743	-0.87728286	0.11086591	0.096727814	-1.6203481	0.075164618	-0.10470312	-1.025634	0.075885646	0.11870375	-1.5973773	0.091740865	-0.0099404869	-1.0158776	0.12017971	0.030203271	NaN	NaN	NaN	-1.0707578	0.030879407	0.063017309	-1.4691195	0.46641224	-0.15570882	-1.1230632	0.52539759	0.15249441	-1.4714773	0.46696354	-0.030407338	-1.112317	0.50713008	0.026475234	-1.3625975	0.87513019	-0.19509476	-1.3357651	0.87038937	0.17745485	-1.257022	0.94857917	-0.13905882	-1.2518212	0.95280535	0.10223442	-1.4172333	1.0133582	-0.010506606	-1.2119983	1.4002135	-0.16210523	-1.2570092	1.4091893	0.16365209	-1.2943088	1.4607192	-0.0025364583	-1.3478924	1.0558229	-0.25017849	-1.4380379	1.0959982	0.24394244	-1.1427402	0.87911523	-0.22195068	-1.3332815	0.84866377	0.29131798
5	0.016	-1.4749542	0.036266037	-0.070599642	-0.86105449	0.11487154	0.098473618	-1.6201977	0.075726094	-0.1040911	-1.0080361	0.07696586	0.120559	-1.5968837	0.092217185	-0.0094719233	-0.99991625	0.1209536	0.031729371	NaN	NaN	NaN	-1.0526314	0.030423915	0.065270681	-1.4671031	0.46624908	-0.15573601	-1.1165292	0.52395882	0.15308459	-1.4695802	0.46682479	-0.030359853	-1.105501	0.50559226	0.026891648	-1.357055	0.87385116	-0.19451545	-1.329577	0.86854426	0.17771453	-1.2511262	0.94697733	-0.13894035	-1.2454081	0.95110687	0.10239994	-1.4112811	1.0116586	-0.0099594682	-1.2059623	1.3986774	-0.1615617	-1.2510721	1.4074073	0.164196	-1.2884925	1.4590452	-0.0020397396	-1.3414591	1.0541339	-0.24991965	-1.4320233	1.0939605	0.24364008	-1.135799	0.87806729	-0.2211993	-1.3274851	0.84698989	0.29211339
6	0.02	-1.4749213	0.03621709	-0.070598939	-0.84528122	0.11892374	0.10026913	-1.6200242	0.076325891	-0.10345453	-0.98984912	0.078680793	0.12267901	-1.5961585	0.092694654	-0.0090343947	-0.98429243	0.12186841	0.033220243	NaN	NaN	NaN	-1.0348777	0.030197416	0.067444857	-1.4649642	0.46606895	-0.15574816	-1.1100605	0.52245242	0.15369926	-1.4675573	0.4666377	-0.030220407	-1.0987993	0.50398258	0.027309781	-1.3514923	0.87255253	-0.19392491	-1.3233032	0.86666024	0.17796921	-1.2452306	0.94535109	-0.1388294	-1.2389593	0.94939112	0.10256057	-1.4052666	1.009949	-0.0095054079	-1.1998747	1.3971234	-0.16101379	-1.2451077	1.4056049	0.16474523	-1.2825752	1.4572447	-0.0015661769	-1.3350484	1.052379	-0.24976073	-1.4260902	1.0919789	0.24348431	-1.1288663	0.87696919	-0.22044639	-1.3216538	0.84529585	0.29291444
7	0.024	-1.4748869	0.036168669	-0.070594603	-0.82996761	0.12296369	0.10209351	-1.6198454	0.076976651	-0.10283985	-0.97161522	0.080743751	0.12488536	-1.5953507	0.093190261	-0.0086375405	-0.96897335	0.12290157	0.034685008	NaN	NaN	NaN	-1.0175898	0.030175636	0.069429737	-1.462677	0.465869	-0.15573228	-1.1035213	0.52092943	0.1543295	-1.4653246	0.46642934	-0.029991811	-1.0921888	0.50230695	0.027732737	-1.3459185	0.87123482	-0.19333131	-1.3169483	0.86474131	0.17822442	-1.2393199	0.94370884	-0.13874324	-1.2324906	0.94766163	0.1027108	-1.3992019	1.0082184	-0.0094052499	-1.1937124	1.3955479	-0.16045586	-1.2391103	1.4037909	0.16530091	-1.2765736	1.4553589	-0.0011122491	-1.3286531	1.0505787	-0.24966549	-1.4202187	1.0900515	0.24344893	-1.1219501	0.87582136	-0.21970656	-1.3157885	0.84358551	0.29372648
8	0.028	-1.4748586	0.03612325	-0.070586148	-0.81508638	0.12696951	0.10386322	-1.6196671	0.077675953	-0.1022858	-0.95461766	0.082487347	0.12677679	-1.594749	0.093686637	-0.0081951412	-0.95393266	0.12402655	0.036126664	NaN	NaN	NaN	-1.0008044	0.030298113	0.071234693	-1.4602091	0.4656475	-0.15565565	-1.0970792	0.51939421	0.1548835	-1.4628592	0.46621927	-0.029708467	-1.0856345	0.50057591	0.028180369	-1.3403371	0.86990619	-0.19275154	-1.3105075	0.86279317	0.17848331	-1.2333948	0.94205981	-0.13867802	-1.2259959	0.94591889	0.10284221	-1.3931113	1.00645	-0.0099181176	-1.1874942	1.3939485	-0.15988876	-1.2330705	1.4019681	0.16586664	-1.2705055	1.4535044	-0.00062229554	-1.3222379	1.048773	-0.24952317	-1.4143525	1.0881603	0.24348592	-1.1150476	0.8746223	-0.21898381	-1.3098978	0.84185833	0.29454518
9	0.032	-1.4748352	0.036081775	-0.070574786	-0.800632	0.13092668	0.10547808	-1.6194805	0.078406524	-0.10180359	-0.93969158	0.083469261	0.12808643	-1.5947525	0.094093253	-0.0075339616	-0.93921464	0.12521508	0.037532399	NaN	NaN	NaN	-0.9845426	0.030542193	0.072865489	-1.4575532	0.46540191	-0.15549749	-1.0905364	0.5179207	0.15535173	-1.4601189	0.46600036	-0.029415145	-1.079105	0.49880746	0.028666654	-1.3347504	0.86857079	-0.19219457	-1.3039659	0.8608271	0.17874331	-1.2274741	0.9404108	-0.13862107	-1.2194578	0.9441636	0.102949	-1.3870125	1.0046536	-0.010865448	-1.1812668	1.3923271	-0.15931757	-1.2269823	1.4001404	0.16644779	-1.2643784	1.4517586	-5.2210148e-05	-1.3157735	1.0469866	-0.24925344	-1.4084528	1.0862805	0.24356371	-1.1081556	0.87337418	-0.21827341	-1.3039795	0.84011398	0.29536415
10	0.036	-1.4748112	0.036043012	-0.070561571	-0.78661603	0.134786	0.10688837	-1.6192681	0.079161594	-0.10137479	-0.92626472	0.083969184	0.12896959	-1.5956568	0.094318076	-0.0065298893	-0.92497881	0.12642406	0.03887603	NaN	NaN	NaN	-0.96879206	0.030945395	0.074281677	-1.4547474	0.46513069	-0.15526872	-1.0834231	0.51661864	0.15582076	-1.4570636	0.46575044	-0.029134122	-1.0725817	0.49702426	0.029187128	-1.3291606	0.86722433	-0.19165181	-1.297307	0.85885744	0.17899954	-1.2215912	0.93876482	-0.1385711	-1.2128551	0.94240197	0.10303708	-1.38089	1.0028542	-0.011627533	-1.1750494	1.3906934	-0.15874176	-1.2208452	1.3983092	0.16704762	-1.258201	1.4501069	0.00059096793	-1.3092619	1.0452178	-0.24887337	-1.4025023	1.0843853	0.24366266	-1.1012751	0.8720826	-0.21756915	-1.2980163	0.83835332	0.29618188
11	0.04	-1.4747814	0.036005705	-0.070546378	-0.77304455	0.13846058	0.10810569	-1.6190166	0.079956972	-0.1009772	-0.91293885	0.08469008	0.12983568	-1.5971314	0.094424941	-0.0053338222	-0.9113661	0.12761204	0.040132239	NaN	NaN	NaN	-0.95344539	0.031564913	0.075467512	-1.4518405	0.46482931	-0.15500755	-1.0756018	0.51549637	0.15637488	-1.45373	0.46545395	-0.028858171	-1.0660543	0.4952478	0.029736411	-1.3235722	0.86586295	-0.19111105	-1.290521	0.85689271	0.17925273	-1.2157843	0.93712422	-0.1385377	-1.206173	0.94064499	0.10311782	-1.3746889	1.0010589	-0.01175824	-1.1688182	1.3890639	-0.15815588	-1.2146626	1.3964708	0.16766271	-1.2519832	1.4484998	0.0012742249	-1.3027303	1.0434461	-0.24846965	-1.3964945	1.0824653	0.24377797	-1.0944077	0.87075322	-0.21686373	-1.2919973	0.8365768	0.29699686
12	0.044	-1.4747417	0.03597048	-0.070528879	-0.75992187	0.14186625	0.10916931	-1.618725	0.080808644	-0.10061096	-0.8989974	0.085969078	0.13091518	-1.5982343	0.094636692	-0.0043384902	-0.89831754	0.12877105	0.041295651	NaN	NaN	NaN	-0.93836578	0.032406394	0.076470698	-1.4488236	0.46448826	-0.15474993	-1.0673746	0.51446055	0.15705517	-1.4502173	0.46511064	-0.028571777	-1.0595007	0.49349751	0.030321629	-1.3179953	0.86449042	-0.19057326	-1.2836086	0.85493519	0.17951016	-1.2100548	0.93549201	-0.13852837	-1.1994145	0.93890217	0.10319435	-1.3683558	0.99926474	-0.011323246	-1.1625503	1.3874507	-0.15756047	-1.2084353	1.3946255	0.16828473	-1.2457326	1.4469063	0.0019729824	-1.2962076	1.0416416	-0.24812923	-1.3904285	1.0805309	0.24391719	-1.0875559	0.86938971	-0.21615343	-1.2859292	0.83478971	0.29780774
13	0.048	-1.4746899	0.035939152	-0.070511501	-0.74726701	0.14495511	0.11013299	-1.6183966	0.081712843	-0.10029562	-0.88495295	0.087489777	0.1320948	-1.5982931	0.095127696	-0.003808238	-0.88567423	0.12990354	0.042382751	NaN	NaN	NaN	-0.9236346	0.033337233	0.077392114	-1.445626	0.46410549	-0.15450444	-1.0591913	0.51342577	0.15783809	-1.4465834	0.4647215	-0.028274143	-1.052853	0.49179706	0.030948643	-1.3124384	0.8631148	-0.19004949	-1.2765781	0.8529874	0.17978134	-1.2043434	0.93387232	-0.13854407	-1.1925971	0.93717851	0.10326349	-1.3619032	0.99748254	-0.010625039	-1.1562514	1.3858554	-0.15696213	-1.2021656	1.3927844	0.16890868	-1.2394538	1.4453177	0.00267778	-1.2896975	1.0398018	-0.24785915	-1.3843096	1.078597	0.24408749	-1.0807237	0.86799402	-0.21544247	-1.2798249	0.83300215	0.29861847
14	0.052	-1.4746262	0.035912512	-0.070499926	-0.73511424	0.147708	0.11105758	-1.6180259	0.0826609	-0.10004944	-0.87161645	0.088783502	0.13316957	-1.5974141	0.095887163	-0.0036900695	-0.87340587	0.13098089	0.043416013	NaN	NaN	NaN	-0.90964451	0.034096042	0.078374337	-1.4421674	0.46369711	-0.154263	-1.0512915	0.51238098	0.15866627	-1.4427775	0.46427969	-0.027985523	-1.0459947	0.49018037	0.031607967	-1.3068979	0.86174287	-0.1895416	-1.2694391	0.85105556	0.18007437	-1.1985769	0.93227051	-0.13858041	-1.1857509	0.93547549	0.10332347	-1.3554176	0.99572956	-0.0098944182	-1.1499391	1.3842728	-0.15636063	-1.1958643	1.3909628	0.16953783	-1.2331467	1.4437315	0.0033871335	-1.2831577	1.0379887	-0.24752426	-1.3781463	1.0766729	0.24429134	-1.0739141	0.86656843	-0.21473788	-1.2736982	0.83121906	0.29943694
15	0.056	-1.4745519	0.035889408	-0.070499418	-0.72349242	0.15010005	0.11197895	-1.6175968	0.083657721	-0.099880844	-0.85921883	0.089702547	0.13409666	-1.596067	0.096793887	-0.0037963346	-0.86160848	0.13195077	0.044408182	NaN	NaN	NaN	-0.8967534	0.034493642	0.079504094	-1.4384086	0.46328304	-0.15402101	-1.0435902	0.51135831	0.15951629	-1.4387588	0.46377664	-0.027720199	-1.0388518	0.4886852	0.03228381	-1.3013557	0.86037976	-0.1890359	-1.2622028	0.84915162	0.18039577	-1.1927247	0.9306913	-0.13862493	-1.1789148	0.9337925	0.10337566	-1.348979	0.99401165	-0.0092124437	-1.1436204	1.3827004	-0.15574519	-1.1895428	1.3891689	0.1701808	-1.2268039	1.4421412	0.0041005648	-1.276538	1.0362735	-0.24696967	-1.3719433	1.0747676	0.24452975	-1.0671307	0.86511661	-0.21404293	-1.2675607	0.82943753	0.30026602
